# xmcd
#
# Track frame offsets: 
#        150
#        12946
#        54641
#        68288
#        90414
#        118522
#        141387
#
# Disc length: 2062 seconds
#
# Revision: 0
# Processed by: cddbd v1.5.2PL0 Copyright (c) Steve Scherf et al.
# Submitted via: ExactAudioCopy v0.95b4
#
DISCID=53080c07
DTITLE=Alessandro Stefana - Poste e telegrafi
DYEAR=2007
DGENRE=Blues
TTITLE0=Western soda
TTITLE1=Semi tostadi di cielo
TTITLE2=Motel
TTITLE3=Poste e telegrafi blues
TTITLE4=Fiori campionati
TTITLE5=Whales cemetery
TTITLE6=Titoli di coda
EXTD=
EXTT0=
EXTT1=
EXTT2=
EXTT3=
EXTT4=
EXTT5=
EXTT6=
PLAYORDER=
